<?xml version="1.0" encoding="UTF-8" standalone="no"?>
<!-- Uploaded to: SVG Repo, www.svgrepo.com, Generator: SVG Repo Mixer Tools -->

<svg
   fill="#000000"
   height="800px"
   width="800px"
   version="1.1"
   id="Capa_1"
   viewBox="0 0 47.607 47.607"
   xml:space="preserve"
   sodipodi:docname="pause.svg"
   inkscape:version="1.3 (0e150ed6c4, 2023-07-21)"
   xmlns:inkscape="http://www.inkscape.org/namespaces/inkscape"
   xmlns:sodipodi="http://sodipodi.sourceforge.net/DTD/sodipodi-0.dtd"
   xmlns="http://www.w3.org/2000/svg"
   xmlns:svg="http://www.w3.org/2000/svg"><defs
   id="defs2" /><sodipodi:namedview
   id="namedview2"
   pagecolor="#ffffff"
   bordercolor="#000000"
   borderopacity="0.25"
   inkscape:showpageshadow="2"
   inkscape:pageopacity="0.0"
   inkscape:pagecheckerboard="0"
   inkscape:deskcolor="#d1d1d1"
   inkscape:zoom="1.02625"
   inkscape:cx="400.48721"
   inkscape:cy="400"
   inkscape:window-width="1920"
   inkscape:window-height="1017"
   inkscape:window-x="-8"
   inkscape:window-y="-8"
   inkscape:window-maximized="1"
   inkscape:current-layer="Capa_1" />&#10;<g
   id="g2"
   transform="matrix(0.59566855,0,0,0.59317905,9.6243014,9.6837625)">&#10;	<path
   d="m 17.991,40.976 c 0,3.662 -2.969,6.631 -6.631,6.631 v 0 c -3.662,0 -6.631,-2.969 -6.631,-6.631 V 6.631 C 4.729,2.969 7.698,0 11.36,0 v 0 c 3.662,0 6.631,2.969 6.631,6.631 z"
   id="path1" />&#10;	<path
   d="m 42.877,40.976 c 0,3.662 -2.969,6.631 -6.631,6.631 v 0 c -3.662,0 -6.631,-2.969 -6.631,-6.631 V 6.631 C 29.616,2.969 32.585,0 36.246,0 v 0 c 3.662,0 6.631,2.969 6.631,6.631 z"
   id="path2" />&#10;</g>&#10;</svg>
