<?xml version="1.0" encoding="UTF-8" standalone="no"?>
<!-- Uploaded to: SVG Repo, www.svgrepo.com, Generator: SVG Repo Mixer Tools -->

<svg
   width="800px"
   height="800px"
   viewBox="0 0 24 24"
   fill="none"
   version="1.1"
   id="svg1"
   sodipodi:docname="triangle — kopia.svg"
   inkscape:version="1.3 (0e150ed6c4, 2023-07-21)"
   xmlns:inkscape="http://www.inkscape.org/namespaces/inkscape"
   xmlns:sodipodi="http://sodipodi.sourceforge.net/DTD/sodipodi-0.dtd"
   xmlns="http://www.w3.org/2000/svg"
   xmlns:svg="http://www.w3.org/2000/svg">
  <defs
     id="defs1" />
  <sodipodi:namedview
     id="namedview1"
     pagecolor="#ffffff"
     bordercolor="#000000"
     borderopacity="0.25"
     inkscape:showpageshadow="2"
     inkscape:pageopacity="0.0"
     inkscape:pagecheckerboard="0"
     inkscape:deskcolor="#d1d1d1"
     inkscape:zoom="0.72566833"
     inkscape:cx="344.51001"
     inkscape:cy="372.75983"
     inkscape:window-width="1920"
     inkscape:window-height="1017"
     inkscape:window-x="-8"
     inkscape:window-y="-8"
     inkscape:window-maximized="1"
     inkscape:current-layer="svg1" />
  <path
     stroke="#000000"
     stroke-width="1.32585"
     d="m 11.667988,6.5486379 a 0.66292497,0.66292497 0 0 1 1.160119,0 l 5.837054,10.5617201 a 0.66292497,0.66292497 0 0 1 -0.580059,0.983781 H 6.4109929 A 0.66292497,0.66292497 0 0 1 5.8309336,17.110358 Z"
     id="path1" />
  <path
     style="fill:none;fill-opacity:0.157509;stroke:#000000;stroke-width:0.263678"
     d="M 6.4514225,17.392241 C 6.4640576,17.359315 12.163756,7.0396087 12.217486,6.9523751 l 0.03309,-0.053718 2.90075,5.2482919 c 1.595411,2.88656 2.900749,5.254387 2.900749,5.261838 0,0.0075 -2.612744,0.01354 -5.806099,0.01354 -5.2407169,0 -5.8049735,-0.0029 -5.7945507,-0.03009 z"
     id="path2" />
  <path
     style="fill:none;fill-opacity:0.157509;stroke:#000000;stroke-width:0.263678"
     d="m 17.519986,17.368609 c 0.02178,-0.01842 0.04938,-0.04656 0.06133,-0.06255 0.01931,-0.02582 -0.586213,-0.02907 -5.42051,-0.02907 -2.9932376,0 -5.4482458,-0.006 -5.4555744,-0.01333 -0.013361,-0.01336 0.1534227,-0.317959 2.5923832,-4.734544 2.0074992,-3.6352731 2.9495822,-5.3365879 2.9529402,-5.332734 0.0038,0.00431 1.917051,3.466304 3.509449,6.350135 1.426633,2.583627 2.117652,3.839705 2.117652,3.849292 0,0.0039 -0.08939,0.0069 -0.198636,0.0067 -0.190585,-4.14e-4 -0.19703,-0.0018 -0.159039,-0.03392 z"
     id="path3" />
  <path
     style="fill:none;fill-opacity:0.157509;stroke:#000000;stroke-width:0.263678"
     d="m 11.847963,17.131703 -4.9154027,-0.0097 0.1270672,-0.232549 c 0.4694604,-0.85917 3.8993005,-7.0730628 5.0627545,-9.1722696 0.0668,-0.1205317 0.128333,-0.2120977 0.136733,-0.2034801 0.0084,0.00862 0.908195,1.6333344 1.999542,3.6104817 2.811467,5.093415 3.285705,5.954593 3.300241,5.992971 0.01201,0.03172 -0.01333,0.0336 -0.391343,0.02912 -0.222304,-0.0027 -2.61612,-0.0092 -5.319592,-0.01453 z"
     id="path4" />
  <path
     style="fill:#000000;fill-opacity:1;stroke:#000000;stroke-width:0.270599"
     d="m 12.160841,6.9673352 c 0,0.1614921 0,0.3229842 0,0.4844761 0,0.051678 0,0.1033551 0,0.1550326 0,0.00646 -0.0058,0.022268 0,0.019379 0.189842,-0.094921 0.232549,-0.3351456 0.232549,-0.5232344 0,-0.019379 0.0137,-0.044435 0,-0.058137 -0.04032,-0.040317 -0.127932,0.2713067 -0.0969,0.2713067 0.0064,0 0,-0.012919 0,-0.019379 0,-0.019379 0,-0.038758 0,-0.058137 0,-0.013613 0.0096,-0.087286 0,-0.096895 -0.0046,-0.00457 -0.01299,-9.149e-4 -0.01938,0 -0.18208,0.026011 -0.19379,0.070943 -0.19379,0.2325486 0,0.025839 -0.01551,0.056845 0,0.077516 0.03509,0.046789 0.232375,-0.09701 0.174411,-0.1356534 -0.09748,-0.064986 -0.122775,0.1808505 -0.174411,0.1550326 -0.05034,-0.025172 0.109646,-0.1380015 0.135653,-0.1744116 0.0219,-0.03065 0.04129,-0.063206 0.05814,-0.096895 0.0029,-0.00578 0,-0.025839 0,-0.019379 0,0.1068718 -0.05814,0.1921736 -0.05814,0.2906859"
     id="path20" />
  <rect
     style="fill:#000000;fill-opacity:1;stroke:#000000;stroke-width:0.270599"
     id="rect20"
     width="2.1316955"
     height="9.0693951"
     x="11.327543"
     y="7.742497"
     ry="0.20676358" />
  <rect
     style="fill:#000000;fill-opacity:1;stroke:#000000;stroke-width:0.270599"
     id="rect21"
     width="11.297986"
     height="2.5580344"
     x="6.9284983"
     y="15.125915"
     ry="0.20676358" />
  <rect
     style="fill:#000000;fill-opacity:1;stroke:#000000;stroke-width:0.270599"
     id="rect22"
     width="8.1585789"
     height="1.8216305"
     x="8.1106205"
     y="13.536833"
     ry="0.20676358" />
  <rect
     style="fill:#000000;fill-opacity:1;stroke:#000000;stroke-width:0.270599"
     id="rect23"
     width="6.4919815"
     height="1.957284"
     x="8.9439192"
     y="11.850856"
     ry="0.20676358" />
  <rect
     style="fill:#000000;fill-opacity:1;stroke:#000000;stroke-width:0.270599"
     id="rect24"
     width="5.5230293"
     height="3.0037527"
     x="9.5252905"
     y="9.9517088"
     ry="0.20676358" />
  <rect
     style="fill:#000000;fill-opacity:1;stroke:#000000;stroke-width:0.270599"
     id="rect25"
     width="1.0464686"
     height="0.58137149"
     x="10.552381"
     y="9.3703375"
     ry="0.20676358" />
  <rect
     style="fill:#000000;stroke:#000000;stroke-width:0.270599"
     id="rect1"
     width="12.689031"
     height="1.3154935"
     x="5.8550959"
     y="3.7345953"
     ry="0.20676358" />
</svg>
