<?xml version="1.0" encoding="UTF-8" standalone="no"?>
<!-- Uploaded to: SVG Repo, www.svgrepo.com, Generator: SVG Repo Mixer Tools -->

<svg
   width="800px"
   height="800px"
   viewBox="0 0 24 24"
   fill="none"
   version="1.1"
   id="svg1"
   sodipodi:docname="triangle.svg"
   inkscape:version="1.3 (0e150ed6c4, 2023-07-21)"
   xmlns:inkscape="http://www.inkscape.org/namespaces/inkscape"
   xmlns:sodipodi="http://sodipodi.sourceforge.net/DTD/sodipodi-0.dtd"
   xmlns="http://www.w3.org/2000/svg"
   xmlns:svg="http://www.w3.org/2000/svg">
  <defs
     id="defs1" />
  <sodipodi:namedview
     id="namedview1"
     pagecolor="#ffffff"
     bordercolor="#000000"
     borderopacity="0.25"
     inkscape:showpageshadow="2"
     inkscape:pageopacity="0.0"
     inkscape:pagecheckerboard="0"
     inkscape:deskcolor="#d1d1d1"
     inkscape:zoom="1.02625"
     inkscape:cx="400.48721"
     inkscape:cy="400"
     inkscape:window-width="1920"
     inkscape:window-height="1017"
     inkscape:window-x="-8"
     inkscape:window-y="-8"
     inkscape:window-maximized="1"
     inkscape:current-layer="svg1" />
  <path
     stroke="#000000"
     stroke-width="1.38517"
     d="m 11.262441,5.1687433 a 0.6925852,0.6925852 0 0 1 1.212024,0 l 6.098213,11.0342677 a 0.6925852,0.6925852 0 0 1 -0.606012,1.027796 H 5.7702404 a 0.6925852,0.6925852 0 0 1 -0.606012,-1.027796 z"
     id="path1" />
  <path
     style="fill:none;fill-opacity:0.157509;stroke:#000000;stroke-width:0.275475"
     d="m 5.8124789,16.497505 c 0.0132,-0.0344 5.9679101,-10.8158242 6.0240451,-10.9069608 l 0.03457,-0.056122 3.030533,5.4831088 c 1.666794,3.01571 3.030534,5.489476 3.030534,5.49726 0,0.0078 -2.729643,0.01415 -6.065872,0.01415 -5.4751945,0 -6.0646968,-0.0031 -6.0538077,-0.03144 z"
     id="path2" />
  <path
     style="fill:none;fill-opacity:0.157509;stroke:#000000;stroke-width:0.275475"
     d="m 17.376266,16.472816 c 0.02275,-0.01924 0.05159,-0.04865 0.06408,-0.06535 0.02018,-0.02698 -0.61244,-0.03037 -5.663032,-0.03037 -3.1271583,0 -5.6920071,-0.0063 -5.6996636,-0.01392 -0.013958,-0.01396 0.160287,-0.332186 2.7083702,-4.946374 2.0973174,-3.7979219 3.0815504,-5.575356 3.0850584,-5.5713298 0.0039,0.0045 2.002823,3.6213922 3.666468,6.6342498 1.490462,2.699222 2.212398,4.011499 2.212398,4.021514 0,0.0041 -0.09339,0.0073 -0.207523,0.007 -0.199112,-4.32e-4 -0.205846,-0.0019 -0.166155,-0.03543 z"
     id="path3" />
  <path
     style="fill:none;fill-opacity:0.157509;stroke:#000000;stroke-width:0.275475"
     d="M 11.450468,16.22531 6.3151435,16.21513 6.4478959,15.972177 C 6.9383607,15.074567 10.521656,8.5826554 11.737165,6.3895272 11.806955,6.2636027 11.87124,6.16794 11.880016,6.1769431 c 0.0088,0.009 0.948829,1.7064122 2.089004,3.7720202 2.937256,5.3213027 3.432712,6.2210107 3.447899,6.2611057 0.01255,0.03314 -0.01392,0.03511 -0.408853,0.03043 -0.23225,-0.0028 -2.733169,-0.0096 -5.557598,-0.01519 z"
     id="path4" />
  <path
     style="fill:#000000;fill-opacity:1;stroke:#000000;stroke-width:0.282706"
     d="m 11.777345,5.6061737 c 0,0.1687175 0,0.337435 0,0.5061523 0,0.05399 0,0.1079793 0,0.1619689 0,0.00675 -0.006,0.023264 0,0.020246 0.198336,-0.099168 0.242953,-0.3501405 0.242953,-0.5466446 0,-0.020246 0.01432,-0.046423 0,-0.060738 -0.04212,-0.042121 -0.133656,0.2834454 -0.101231,0.2834454 0.0067,0 0,-0.013497 0,-0.020246 0,-0.020246 0,-0.040492 0,-0.060738 0,-0.014222 0.01004,-0.091191 0,-0.1012305 -0.0048,-0.00477 -0.01357,-9.558e-4 -0.02024,0 -0.190226,0.027175 -0.20246,0.074117 -0.20246,0.2429532 0,0.026995 -0.0162,0.059388 0,0.080984 0.03666,0.048881 0.242771,-0.1013513 0.182214,-0.1417231 -0.101841,-0.067894 -0.128268,0.1889419 -0.182214,0.1619689 -0.0526,-0.026298 0.114551,-0.1441759 0.141722,-0.182215 0.02288,-0.032022 0.04314,-0.066034 0.06074,-0.1012303 0.003,-0.00604 0,-0.026995 0,-0.020246 0,0.1116534 -0.06074,0.2007717 -0.06074,0.3036916"
     id="path20" />
  <rect
     style="fill:#000000;fill-opacity:1;stroke:#000000;stroke-width:0.282706"
     id="rect20"
     width="2.2270708"
     height="9.475173"
     x="10.906764"
     y="6.4160171"
     ry="0.21601449" />
  <rect
     style="fill:#000000;fill-opacity:1;stroke:#000000;stroke-width:0.282706"
     id="rect21"
     width="11.803474"
     height="2.6724846"
     x="6.3108997"
     y="14.129781"
     ry="0.21601449" />
  <rect
     style="fill:#000000;fill-opacity:1;stroke:#000000;stroke-width:0.282706"
     id="rect22"
     width="8.5236063"
     height="1.9031329"
     x="7.5459118"
     y="12.469601"
     ry="0.21601449" />
  <rect
     style="fill:#000000;fill-opacity:1;stroke:#000000;stroke-width:0.282706"
     id="rect23"
     width="6.7824421"
     height="2.0448558"
     x="8.4164934"
     y="10.708191"
     ry="0.21601449" />
  <rect
     style="fill:#000000;fill-opacity:1;stroke:#000000;stroke-width:0.282706"
     id="rect24"
     width="5.7701373"
     height="3.138145"
     x="9.0238762"
     y="8.7240725"
     ry="0.21601449" />
  <rect
     style="fill:#000000;fill-opacity:1;stroke:#000000;stroke-width:0.282706"
     id="rect25"
     width="1.0932891"
     height="0.60738289"
     x="10.096919"
     y="8.1166897"
     ry="0.21601449" />
</svg>
